{"title":"The Double (2011) DVDSCR XVID-WBZ","uid":6946358,"size":748180162,"categoryP":"video","categoryS":"movies","magnet":"?xt=urn:btih:aaeb0e405fbfd9d231280c2625a7637764b76ff8&amp;dn=The+Double+%282011%29+DVDSCR+XVID-WBZ&amp;tr=udp%3A%2F%2Ftracker.openbittorrent.com%3A80&amp;tr=udp%3A%2F%2Fopen.demonii.com%3A1337&amp;tr=udp%3A%2F%2Ftracker.coppersurfer.tk%3A6969&amp;tr=udp%3A%2F%2Fexodus.desync.com%3A6969","seeders":1,"leechers":0,"uploader":"TorrentXXLS","files":-1,"time":1326243160,"description":"Poster:\n &lt;a href=&quot;\nhttp://www.hotimg.com/direct/PrX7muj.jpg&quot; rel=&quot;nofollow&quot; target=&quot;_NEW&quot;&gt;\nhttp://www.hotimg.com/direct/PrX7muj.jpg&lt;/a&gt;\n\nScreenshots:\n &lt;a href=&quot;\nhttp://www.hotimg.com/direct/a8seHaH.png&quot; rel=&quot;nofollow&quot; target=&quot;_NEW&quot;&gt;\nhttp://www.hotimg.com/direct/a8seHaH.png&lt;/a&gt;\n &lt;a href=&quot;\nhttp://www.hotimg.com/direct/DmBxtsH.png&quot; rel=&quot;nofollow&quot; target=&quot;_NEW&quot;&gt;\nhttp://www.hotimg.com/direct/DmBxtsH.png&lt;/a&gt;\n &lt;a href=&quot;\nhttp://www.hotimg.com/direct/XA2cnFn.png&quot; rel=&quot;nofollow&quot; target=&quot;_NEW&quot;&gt;\nhttp://www.hotimg.com/direct/XA2cnFn.png&lt;/a&gt;\n &lt;a href=&quot;\nhttp://www.hotimg.com/direct/VkjJncZ.png&quot; rel=&quot;nofollow&quot; target=&quot;_NEW&quot;&gt;\nhttp://www.hotimg.com/direct/VkjJncZ.png&lt;/a&gt;\n\nInformation:\n\nThe Double (2011) DVDSCR XVID-WBZ\n &lt;a href=&quot;\nhttp://www.imdb.com/title/tt1646980/&quot; rel=&quot;nofollow&quot; target=&quot;_NEW&quot;&gt;\nhttp://www.imdb.com/title/tt1646980/&lt;/a&gt;\n\nTitle\tThe Double 2011\nGenre: Crime, Drama, Mystery, Thriller\nRating: 6.0/10 (354 Votes)\nRelease Date: 28 October 2011\n\n\nSynopsis :\nStory kicks off with the mysterious murder of a senator bearing the marks of a Soviet assassin, who was long thought to be dead. To hunt down the killer, a retired CIA operative, who spent his career going toe-to-toe with his Soviet nemesis, is teamed with a young FBI agent.\n\nFormat : AVI\nFormat/Info : Audio Video Interleave\nFile size : 714 MiB\nDuration : 1h 34mn\nOverall bit rate : 1 054 Kbps\nWriting application : Lavf52.39.1\n\nVideo\nID : 0\nFormat : xvid\nCodec ID : xvid\nDuration : 1h 34mn\nBit rate : 977 Kbps\nWidth : 704 pixels\nHeight : 320 pixels\nDisplay aspect ratio : 2.2:1\nFrame rate : 23.976 fps\nBits/(Pixel*Frame) : 0.181\nStream size : 662 MiB (93%)\n\nAudio\nID : 1\nFormat : MPEG Audio\nFormat version : Version 1\nFormat profile : Layer 3\nMode : Joint stereo\nMode extension : MS Stereo\nCodec ID : 55\nCodec ID/Hint : MP3\nDuration : 1h 34mn\nBit rate mode : Constant\nBit rate : 64.0 Kbps\nChannel(s) : 2 channels\nSampling rate : 48.0 KHz\nCompression mode : Lossy\nStream size : 43.3 MiB (6%)\nAlignment : Aligned on interleaves\nInterleave, duration : 24 ms (0.58 video frame)\nInterleave, preload duration : 24 ms","torrent":{"xt":"urn:btih:aaeb0e405fbfd9d231280c2625a7637764b76ff8","amp;dn":"The+Double+%282011%29+DVDSCR+XVID-WBZ","amp;tr":["udp%3A%2F%2Ftracker.openbittorrent.com%3A80","udp%3A%2F%2Fopen.demonii.com%3A1337","udp%3A%2F%2Ftracker.coppersurfer.tk%3A6969","udp%3A%2F%2Fexodus.desync.com%3A6969"],"infoHash":"aaeb0e405fbfd9d231280c2625a7637764b76ff8","infoHashBuffer":{"type":"Buffer","data":[170,235,14,64,95,191,217,210,49,40,12,38,37,167,99,119,100,183,111,248]},"announce":[],"urlList":[]}}